<?xml version="1.0" encoding="UTF-8" standalone="no"?>
<svg
   xmlns:dc="http://purl.org/dc/elements/1.1/"
   xmlns:cc="http://creativecommons.org/ns#"
   xmlns:rdf="http://www.w3.org/1999/02/22-rdf-syntax-ns#"
   xmlns:svg="http://www.w3.org/2000/svg"
   xmlns="http://www.w3.org/2000/svg"
   xmlns:sodipodi="http://sodipodi.sourceforge.net/DTD/sodipodi-0.dtd"
   xmlns:inkscape="http://www.inkscape.org/namespaces/inkscape"
   aria-hidden="true"
   focusable="false"
   data-prefix="fas"
   data-icon="paw"
   class="svg-inline--fa fa-paw fa-w-16"
   role="img"
   viewBox="0 0 512 512"
   version="1.1"
   id="svg4"
   sodipodi:docname="paw-solid.svg"
   inkscape:version="0.92.4 (5da689c313, 2019-01-14)">
  <metadata
     id="metadata10">
    <rdf:RDF>
      <cc:Work
         rdf:about="">
        <dc:format>image/svg+xml</dc:format>
        <dc:type
           rdf:resource="http://purl.org/dc/dcmitype/StillImage" />
      </cc:Work>
    </rdf:RDF>
  </metadata>
  <defs
     id="defs8" />
  <sodipodi:namedview
     pagecolor="#ffffff"
     bordercolor="#666666"
     borderopacity="1"
     objecttolerance="10"
     gridtolerance="10"
     guidetolerance="10"
     inkscape:pageopacity="0"
     inkscape:pageshadow="2"
     inkscape:window-width="1920"
     inkscape:window-height="1017"
     id="namedview6"
     showgrid="false"
     inkscape:zoom="0.32593203"
     inkscape:cx="-35.297999"
     inkscape:cy="-485.60245"
     inkscape:window-x="-8"
     inkscape:window-y="-8"
     inkscape:window-maximized="1"
     inkscape:current-layer="layer1"
     showguides="true"
     inkscape:guide-bbox="true">
    <sodipodi:guide
       position="381.55932,466.98305"
       orientation="0.70710678,0.70710678"
       id="guide4688"
       inkscape:locked="false" />
    <sodipodi:guide
       position="557.55932,104.13559"
       orientation="0.70710678,0.70710678"
       id="guide4690"
       inkscape:locked="false" />
    <sodipodi:guide
       position="371.24305,227.80823"
       orientation="0.70710678,0.70710678"
       id="guide4692"
       inkscape:locked="false" />
    <sodipodi:guide
       position="143.43481,337.49368"
       orientation="0.70710678,0.70710678"
       id="guide4694"
       inkscape:locked="false" />
    <sodipodi:guide
       position="312.67797,318.91525"
       orientation="0.70710678,0.70710678"
       id="guide4696"
       inkscape:locked="false" />
    <sodipodi:guide
       position="109.55932,313.22034"
       orientation="0.70710678,0.70710678"
       id="guide4698"
       inkscape:locked="false" />
    <sodipodi:guide
       position="18.169492,247.18644"
       orientation="0.70710678,0.70710678"
       id="guide4700"
       inkscape:locked="false" />
    <sodipodi:guide
       position="96.542373,32.542373"
       orientation="0.70710678,0.70710678"
       id="guide4702"
       inkscape:locked="false" />
  </sodipodi:namedview>
  <g
     inkscape:groupmode="layer"
     id="layer1"
     inkscape:label="Shadow"
     style="opacity:0.166">
    <path
       style="fill:#000000;stroke:none;stroke-width:1px;stroke-linecap:butt;stroke-linejoin:miter;stroke-opacity:1"
       d="M 381.55859 45.017578 L 310.43945 160.74609 L 201.2207 51.525391 L 143.43555 174.50586 L 296.74609 327.81641 L 260.07227 349.29297 L 88.271484 177.49219 L 18.169922 264.81445 L 160.79102 407.43555 L 74.847656 457.76367 L 219.48242 602.39844 L 308.06836 690.98242 L 859.1875 1242.1016 L 1295.6191 959.07617 L 781.69531 445.15234 L 612.96094 276.41797 L 381.55859 45.017578 z "
       id="path4704" />
  </g>
  <g
     inkscape:groupmode="layer"
     id="layer2"
     inkscape:label="Foreground"
     sodipodi:insensitive="true">
    <path
       d="M 256,224 C 176.59,224 64,346.76 64,424.25 64,459.15 90.81,480 135.74,480 184.58,480 216.83,454.92 256,454.92 295.51,454.92 327.85,480 376.26,480 421.19,480 448,459.15 448,424.25 448,346.76 335.41,224 256,224 Z M 108.72,211.39 C 98.32,176.74 66.28,154.3 37.16,161.26 8.04,168.22 -7.13,201.95 3.27,236.6 c 10.4,34.65 42.44,57.09 71.56,50.13 29.12,-6.96 44.29,-40.69 33.89,-75.34 z m 84.72,-20.78 c 30.94,-8.14 46.42,-49.94 34.58,-93.36 -11.84,-43.42 -46.52,-72.01 -77.46,-63.87 -30.94,8.14 -46.42,49.94 -34.58,93.36 11.84,43.42 46.53,72.02 77.46,63.87 z m 281.39,-29.34 c -29.12,-6.96 -61.15,15.48 -71.56,50.13 -10.4,34.65 4.77,68.38 33.89,75.34 29.12,6.96 61.15,-15.48 71.56,-50.13 10.4,-34.65 -4.77,-68.38 -33.89,-75.34 z m -156.27,29.34 c 30.94,8.14 65.62,-20.45 77.46,-63.87 11.84,-43.42 -3.64,-85.21 -34.58,-93.36 -30.94,-8.15 -65.62,20.45 -77.46,63.87 -11.84,43.42 3.64,85.22 34.58,93.36 z"
       id="path2"
       style="fill:#a05a2c"
       inkscape:connector-curvature="0" />
  </g>
</svg>
